<svg width="802" height="142" viewBox="0 0 802 142" fill="none" xmlns="http://www.w3.org/2000/svg">
<path d="M485.148 46.03C491.207 46.03 496.555 47.2133 501.194 49.58C505.833 51.9467 509.43 55.544 511.986 60.372C514.637 65.2 515.962 71.306 515.962 78.69V122H502.33V80.252C502.33 72.9627 500.626 67.472 497.218 63.78C493.81 60.088 489.029 58.242 482.876 58.242C478.332 58.242 474.356 59.1887 470.948 61.082C467.54 62.9753 464.889 65.768 462.996 69.46C461.197 73.152 460.298 77.7433 460.298 83.234V122H446.666V80.252C446.666 72.9627 444.962 67.472 441.554 63.78C438.241 60.088 433.46 58.242 427.212 58.242C422.763 58.242 418.834 59.1887 415.426 61.082C412.018 62.9753 409.367 65.768 407.474 69.46C405.581 73.152 404.634 77.7433 404.634 83.234V122H391.002V46.74H404.066V66.762L401.936 61.65C404.303 56.7273 407.947 52.8933 412.87 50.148C417.793 47.4027 423.52 46.03 430.052 46.03C437.247 46.03 443.447 47.8287 448.654 51.426C453.861 54.9287 457.269 60.2773 458.878 67.472L453.34 65.2C455.612 59.4253 459.588 54.7867 465.268 51.284C470.948 47.7813 477.575 46.03 485.148 46.03ZM573.279 122.852C565.706 122.852 558.984 121.195 553.115 117.882C547.246 114.569 542.607 110.025 539.199 104.25C535.791 98.3807 534.087 91.754 534.087 84.37C534.087 76.8913 535.791 70.2647 539.199 64.49C542.607 58.7153 547.246 54.2187 553.115 51C558.984 47.6867 565.706 46.03 573.279 46.03C580.758 46.03 587.432 47.6867 593.301 51C599.265 54.2187 603.904 58.7153 607.217 64.49C610.625 70.17 612.329 76.7967 612.329 84.37C612.329 91.8487 610.625 98.4753 607.217 104.25C603.904 110.025 599.265 114.569 593.301 117.882C587.432 121.195 580.758 122.852 573.279 122.852ZM573.279 110.924C578.107 110.924 582.414 109.835 586.201 107.658C590.082 105.481 593.112 102.404 595.289 98.428C597.466 94.3573 598.555 89.6713 598.555 84.37C598.555 78.974 597.466 74.3353 595.289 70.454C593.112 66.478 590.082 63.4013 586.201 61.224C582.414 59.0467 578.107 57.958 573.279 57.958C568.451 57.958 564.144 59.0467 560.357 61.224C556.57 63.4013 553.541 66.478 551.269 70.454C548.997 74.3353 547.861 78.974 547.861 84.37C547.861 89.6713 548.997 94.3573 551.269 98.428C553.541 102.404 556.57 105.481 560.357 107.658C564.144 109.835 568.451 110.924 573.279 110.924ZM662.28 122.852C654.99 122.852 648.458 121.243 642.684 118.024C637.004 114.805 632.507 110.309 629.194 104.534C625.88 98.7593 624.224 92.038 624.224 84.37C624.224 76.702 625.88 70.028 629.194 64.348C632.507 58.5733 637.004 54.0767 642.684 50.858C648.458 47.6393 654.99 46.03 662.28 46.03C668.622 46.03 674.35 47.45 679.462 50.29C684.574 53.13 688.644 57.39 691.674 63.07C694.798 68.75 696.36 75.85 696.36 84.37C696.36 92.89 694.845 99.99 691.816 105.67C688.881 111.35 684.858 115.657 679.746 118.592C674.634 121.432 668.812 122.852 662.28 122.852ZM663.416 110.924C668.149 110.924 672.409 109.835 676.196 107.658C680.077 105.481 683.106 102.404 685.284 98.428C687.556 94.3573 688.692 89.6713 688.692 84.37C688.692 78.974 687.556 74.3353 685.284 70.454C683.106 66.478 680.077 63.4013 676.196 61.224C672.409 59.0467 668.149 57.958 663.416 57.958C658.588 57.958 654.28 59.0467 650.494 61.224C646.707 63.4013 643.678 66.478 641.406 70.454C639.134 74.3353 637.998 78.974 637.998 84.37C637.998 89.6713 639.134 94.3573 641.406 98.428C643.678 102.404 646.707 105.481 650.494 107.658C654.28 109.835 658.588 110.924 663.416 110.924ZM689.118 122V101.694L689.97 84.228L688.55 66.762V16.636H702.182V122H689.118ZM761.487 122.852C753.44 122.852 746.34 121.195 740.187 117.882C734.128 114.569 729.395 110.025 725.987 104.25C722.673 98.4753 721.017 91.8487 721.017 84.37C721.017 76.8913 722.626 70.2647 725.845 64.49C729.158 58.7153 733.655 54.2187 739.335 51C745.109 47.6867 751.594 46.03 758.789 46.03C766.078 46.03 772.515 47.6393 778.101 50.858C783.686 54.0767 788.041 58.6207 791.165 64.49C794.383 70.2647 795.993 77.0333 795.993 84.796C795.993 85.364 795.945 86.0267 795.851 86.784C795.851 87.5413 795.803 88.2513 795.709 88.914H731.667V79.116H788.609L783.071 82.524C783.165 77.696 782.171 73.3887 780.089 69.602C778.006 65.8153 775.119 62.8807 771.427 60.798C767.829 58.6207 763.617 57.532 758.789 57.532C754.055 57.532 749.843 58.6207 746.151 60.798C742.459 62.8807 739.571 65.8627 737.489 69.744C735.406 73.5307 734.365 77.8853 734.365 82.808V85.08C734.365 90.0973 735.501 94.594 737.773 98.57C740.139 102.451 743.405 105.481 747.571 107.658C751.736 109.835 756.517 110.924 761.913 110.924C766.362 110.924 770.385 110.167 773.983 108.652C777.675 107.137 780.893 104.865 783.639 101.836L791.165 110.64C787.757 114.616 783.497 117.645 778.385 119.728C773.367 121.811 767.735 122.852 761.487 122.852Z" fill="white"/>
<path d="M47.996 123.278C39.476 123.278 31.8553 121.574 25.134 118.166C18.5073 114.758 13.3007 110.072 9.514 104.108C5.72733 98.0493 3.834 91.1387 3.834 83.376C3.834 75.6133 5.72733 68.75 9.514 62.786C13.3007 56.822 18.5073 52.1833 25.134 48.87C31.8553 45.462 39.476 43.758 47.996 43.758C56.7053 43.758 64.2313 45.604 70.574 49.296C76.9167 52.988 81.4133 58.1947 84.064 64.916L63.19 75.566C61.3913 71.9687 59.1667 69.3653 56.516 67.756C53.8653 66.052 50.978 65.2 47.854 65.2C44.73 65.2 41.89 65.91 39.334 67.33C36.778 68.75 34.7427 70.8327 33.228 73.578C31.808 76.2287 31.098 79.4947 31.098 83.376C31.098 87.352 31.808 90.7127 33.228 93.458C34.7427 96.2033 36.778 98.286 39.334 99.706C41.89 101.126 44.73 101.836 47.854 101.836C50.978 101.836 53.8653 101.031 56.516 99.422C59.1667 97.718 61.3913 95.0673 63.19 91.47L84.064 102.12C81.4133 108.841 76.9167 114.048 70.574 117.74C64.2313 121.432 56.7053 123.278 47.996 123.278ZM132.015 123.278C123.589 123.278 116.111 121.574 109.579 118.166C103.047 114.758 97.8872 110.072 94.1005 104.108C90.4085 98.0493 88.5625 91.1387 88.5625 83.376C88.5625 75.6133 90.4085 68.75 94.1005 62.786C97.8872 56.822 103.047 52.1833 109.579 48.87C116.111 45.462 123.589 43.758 132.015 43.758C140.44 43.758 147.919 45.462 154.451 48.87C161.077 52.1833 166.237 56.822 169.929 62.786C173.621 68.75 175.467 75.6133 175.467 83.376C175.467 91.1387 173.621 98.0493 169.929 104.108C166.237 110.072 161.077 114.758 154.451 118.166C147.919 121.574 140.44 123.278 132.015 123.278ZM132.015 101.836C135.139 101.836 137.884 101.126 140.251 99.706C142.712 98.286 144.653 96.2033 146.073 93.458C147.493 90.618 148.203 87.2573 148.203 83.376C148.203 79.4947 147.493 76.2287 146.073 73.578C144.653 70.8327 142.712 68.75 140.251 67.33C137.884 65.91 135.139 65.2 132.015 65.2C128.985 65.2 126.24 65.91 123.779 67.33C121.412 68.75 119.471 70.8327 117.957 73.578C116.537 76.2287 115.827 79.4947 115.827 83.376C115.827 87.2573 116.537 90.618 117.957 93.458C119.471 96.2033 121.412 98.286 123.779 99.706C126.24 101.126 128.985 101.836 132.015 101.836ZM221.477 123.278C214.471 123.278 208.081 121.669 202.307 118.45C196.627 115.137 192.083 110.545 188.675 104.676C185.267 98.712 183.563 91.612 183.563 83.376C183.563 75.2347 185.267 68.2293 188.675 62.36C192.083 56.396 196.627 51.8047 202.307 48.586C208.081 45.3673 214.471 43.758 221.477 43.758C228.103 43.758 233.689 45.178 238.233 48.018C242.871 50.858 246.374 55.2127 248.741 61.082C251.107 66.9513 252.291 74.3827 252.291 83.376C252.291 92.5587 251.155 100.085 248.883 105.954C246.611 111.823 243.203 116.178 238.659 119.018C234.115 121.858 228.387 123.278 221.477 123.278ZM227.157 101.836C230.186 101.836 232.884 101.126 235.251 99.706C237.712 98.286 239.653 96.2033 241.073 93.458C242.493 90.618 243.203 87.2573 243.203 83.376C243.203 79.4947 242.493 76.2287 241.073 73.578C239.653 70.8327 237.712 68.75 235.251 67.33C232.884 65.91 230.186 65.2 227.157 65.2C224.033 65.2 221.24 65.91 218.779 67.33C216.412 68.75 214.519 70.8327 213.099 73.578C211.679 76.2287 210.969 79.4947 210.969 83.376C210.969 87.2573 211.679 90.618 213.099 93.458C214.519 96.2033 216.412 98.286 218.779 99.706C221.24 101.126 224.033 101.836 227.157 101.836ZM244.055 122V108.794L244.197 83.376L242.777 57.958V16.636H269.757V122H244.055ZM327.443 123.278C318.355 123.278 310.403 121.574 303.587 118.166C296.866 114.663 291.612 109.93 287.825 103.966C284.133 97.9073 282.287 91.044 282.287 83.376C282.287 75.708 284.086 68.892 287.683 62.928C291.375 56.8693 296.44 52.1833 302.877 48.87C309.314 45.462 316.556 43.758 324.603 43.758C332.176 43.758 339.087 45.32 345.335 48.444C351.583 51.4733 356.553 55.97 360.245 61.934C363.937 67.898 365.783 75.14 365.783 83.66C365.783 84.6067 365.736 85.6953 365.641 86.926C365.546 88.1567 365.452 89.2927 365.357 90.334H304.439V76.134H351.015L340.791 80.11C340.886 76.6073 340.223 73.578 338.803 71.022C337.478 68.466 335.584 66.478 333.123 65.058C330.756 63.638 327.964 62.928 324.745 62.928C321.526 62.928 318.686 63.638 316.225 65.058C313.858 66.478 312.012 68.5133 310.687 71.164C309.362 73.72 308.699 76.7493 308.699 80.252V84.37C308.699 88.1567 309.456 91.4227 310.971 94.168C312.58 96.9133 314.852 99.0433 317.787 100.558C320.722 101.978 324.224 102.688 328.295 102.688C332.082 102.688 335.3 102.167 337.951 101.126C340.696 99.99 343.394 98.286 346.045 96.014L360.245 110.782C356.553 114.853 352.009 117.977 346.613 120.154C341.217 122.237 334.827 123.278 327.443 123.278Z" fill="white"/>
</svg>
