<svg width="24" height="24" viewBox="0 0 24 24" fill="none" xmlns="http://www.w3.org/2000/svg">
<path d="M17.0761 10.535C17.3314 10.7905 17.6347 10.9932 17.9684 11.1315C18.3021 11.2698 18.6598 11.3409 19.0211 11.3409C19.3823 11.3409 19.74 11.2698 20.0737 11.1315C20.4075 10.9932 20.7107 10.7905 20.9661 10.535C21.0931 10.407 21.3281 10.459 21.3591 10.637C21.7026 12.5749 21.4191 14.5718 20.5497 16.3375C19.6804 18.1031 18.2705 19.5455 16.5252 20.4549C14.7798 21.3642 12.7899 21.6932 10.8447 21.394C8.89948 21.0948 7.10043 20.1829 5.70906 18.791C4.31716 17.3997 3.40531 15.6006 3.10608 13.6554C2.80686 11.7102 3.13585 9.72029 4.04523 7.97492C4.9546 6.22954 6.39697 4.81971 8.16263 3.95037C9.92829 3.08103 11.9252 2.79751 13.8631 3.14102C14.0411 3.17202 14.0931 3.40702 13.9651 3.53502C13.557 3.94312 13.2876 4.46927 13.1951 5.03896C13.1026 5.60865 13.1917 6.19299 13.4498 6.70923C13.7079 7.22547 14.1218 7.64742 14.633 7.91534C15.1442 8.18326 15.7267 8.28356 16.2981 8.20202C16.2378 8.6246 16.2767 9.05541 16.4117 9.46034C16.5468 9.86527 16.7742 10.2332 17.0761 10.535Z" stroke="black" stroke-width="1.5" stroke-linecap="round" stroke-linejoin="round"/>
<path d="M8.5 16.75C9.19036 16.75 9.75 16.1904 9.75 15.5C9.75 14.8096 9.19036 14.25 8.5 14.25C7.80964 14.25 7.25 14.8096 7.25 15.5C7.25 16.1904 7.80964 16.75 8.5 16.75Z" fill="black"/>
<path d="M7.5 10.75C8.19036 10.75 8.75 10.1904 8.75 9.5C8.75 8.80964 8.19036 8.25 7.5 8.25C6.80964 8.25 6.25 8.80964 6.25 9.5C6.25 10.1904 6.80964 10.75 7.5 10.75Z" fill="black"/>
<path d="M12.5 13.75C13.1904 13.75 13.75 13.1904 13.75 12.5C13.75 11.8096 13.1904 11.25 12.5 11.25C11.8096 11.25 11.25 11.8096 11.25 12.5C11.25 13.1904 11.8096 13.75 12.5 13.75Z" fill="black"/>
<path d="M15.5 17.75C16.1904 17.75 16.75 17.1904 16.75 16.5C16.75 15.8096 16.1904 15.25 15.5 15.25C14.8096 15.25 14.25 15.8096 14.25 16.5C14.25 17.1904 14.8096 17.75 15.5 17.75Z" fill="black"/>
</svg>
