<svg width="24" height="24" viewBox="0 0 24 24" fill="none" xmlns="http://www.w3.org/2000/svg">
<path d="M10.5 5C8.81886 5 7.17547 5.49852 5.77766 6.43251C4.37984 7.3665 3.29037 8.69402 2.64703 10.2472C2.00368 11.8004 1.83535 13.5094 2.16333 15.1583C2.4913 16.8071 3.30085 18.3217 4.4896 19.5104C5.67834 20.6992 7.1929 21.5087 8.84174 21.8367C10.4906 22.1647 12.1996 21.9963 13.7528 21.353C15.306 20.7096 16.6335 19.6202 17.5675 18.2223C18.5015 16.8245 19 15.1811 19 13.5C19 13.03 18.616 12.641 18.155 12.734C17.194 12.929 16.3299 13.4503 15.7093 14.2096C15.0887 14.9688 14.7498 15.9194 14.75 16.9M10.5 5H17.3C18.239 5 19.022 5.773 18.79 6.683C18.4161 8.1468 17.5653 9.44439 16.372 10.371C15.1787 11.2976 13.7108 11.8003 12.2 11.8H10.5C9.8237 11.8 9.1751 12.0687 8.69688 12.5469C8.21866 13.0251 7.95 13.6737 7.95 14.35C7.95 15.0263 8.21866 15.6749 8.69688 16.1531C9.1751 16.6313 9.8237 16.9 10.5 16.9H14.75M10.5 5V8.4M14.75 16.9V17.75M5.4 20.3L8.8 16.9M3.275 9.25L7.95 13.075M13.5 8H13.491" stroke="#AE7D54" stroke-width="1.5" stroke-linecap="round" stroke-linejoin="round"/>
<path d="M9 2H20.16C21.321 2 22.191 3.051 21.964 4.178C21.669 5.638 20.344 6.678 18.919 7" stroke="#AE7D54" stroke-width="1.5" stroke-linecap="round" stroke-linejoin="round"/>
</svg>
