<svg width="24" height="24" viewBox="0 0 24 24" fill="none" xmlns="http://www.w3.org/2000/svg">
<path d="M0.75 18H23.25C23.4489 18 23.6397 18.079 23.7803 18.2197C23.921 18.3603 24 18.5511 24 18.75C24 18.9489 23.921 19.1397 23.7803 19.2803C23.6397 19.421 23.4489 19.5 23.25 19.5H0.75C0.551088 19.5 0.360322 19.421 0.21967 19.2803C0.0790176 19.1397 0 18.9489 0 18.75C0 18.5511 0.0790176 18.3603 0.21967 18.2197C0.360322 18.079 0.551088 18 0.75 18ZM3.783 15.75C3.96711 13.6978 4.91246 11.7888 6.43309 10.3985C7.95373 9.00816 9.93958 8.23716 12 8.23716C14.0604 8.23716 16.0463 9.00816 17.5669 10.3985C19.0875 11.7888 20.0329 13.6978 20.217 15.75H18.7095C18.5277 14.0976 17.7425 12.5704 16.5044 11.4611C15.2663 10.3518 13.6624 9.73832 12 9.73832C10.3376 9.73832 8.73372 10.3518 7.49562 11.4611C6.25753 12.5704 5.47233 14.0976 5.2905 15.75H3.783ZM12 3C12.1989 3 12.3897 3.07902 12.5303 3.21967C12.671 3.36032 12.75 3.55109 12.75 3.75V6C12.75 6.19891 12.671 6.38968 12.5303 6.53033C12.3897 6.67098 12.1989 6.75 12 6.75C11.8011 6.75 11.6103 6.67098 11.4697 6.53033C11.329 6.38968 11.25 6.19891 11.25 6V3.75C11.25 3.55109 11.329 3.36032 11.4697 3.21967C11.6103 3.07902 11.8011 3 12 3ZM21.546 6.954C21.6866 7.09465 21.7656 7.28538 21.7656 7.48425C21.7656 7.68312 21.6866 7.87385 21.546 8.0145L19.956 9.6045C19.8868 9.67613 19.8041 9.73327 19.7126 9.77258C19.6211 9.81188 19.5226 9.83257 19.4231 9.83344C19.3235 9.8343 19.2247 9.81533 19.1325 9.77762C19.0404 9.73991 18.9566 9.68422 18.8862 9.6138C18.8158 9.54338 18.7601 9.45964 18.7224 9.36747C18.6847 9.27529 18.6657 9.17653 18.6666 9.07695C18.6674 8.97736 18.6881 8.87895 18.7274 8.78745C18.7667 8.69594 18.8239 8.61319 18.8955 8.544L20.4855 6.954C20.6261 6.8134 20.8169 6.73441 21.0157 6.73441C21.2146 6.73441 21.4054 6.8134 21.546 6.954ZM2.454 6.954C2.59465 6.8134 2.78538 6.73441 2.98425 6.73441C3.18312 6.73441 3.37385 6.8134 3.5145 6.954L5.1045 8.544C5.17613 8.61319 5.23327 8.69594 5.27258 8.78745C5.31188 8.87895 5.33257 8.97736 5.33344 9.07695C5.3343 9.17653 5.31533 9.27529 5.27762 9.36747C5.23991 9.45964 5.18422 9.54338 5.1138 9.6138C5.04338 9.68422 4.95964 9.73991 4.86747 9.77762C4.77529 9.81533 4.67653 9.8343 4.57695 9.83344C4.47736 9.83257 4.37895 9.81188 4.28745 9.77258C4.19594 9.73327 4.11319 9.67613 4.044 9.6045L2.454 8.0145C2.3134 7.87385 2.23441 7.68312 2.23441 7.48425C2.23441 7.28538 2.3134 7.09465 2.454 6.954Z" fill="#AE7D54"/>
</svg>
