<svg width="24" height="24" viewBox="0 0 24 24" fill="none" xmlns="http://www.w3.org/2000/svg">
<path d="M16.0995 9.4545C16.1103 9.3566 16.1018 9.25752 16.0743 9.16293C16.0469 9.06834 16.001 8.98007 15.9395 8.90319C15.8779 8.8263 15.8018 8.76229 15.7155 8.71482C15.6292 8.66734 15.5344 8.63733 15.4365 8.6265C15.3386 8.61567 15.2395 8.62422 15.1449 8.65168C15.0503 8.67913 14.9621 8.72495 14.8852 8.78652C14.8083 8.84808 14.7443 8.92419 14.6968 9.01049C14.6493 9.09679 14.6193 9.1916 14.6085 9.2895C14.5472 9.84016 14.3131 10.3573 13.94 10.7668C13.5668 11.1764 13.0736 11.4573 12.531 11.5695C12.3361 11.6097 12.1651 11.7257 12.0556 11.8919C11.9462 12.0582 11.9073 12.2611 11.9475 12.456C11.9877 12.6509 12.1037 12.8219 12.2699 12.9314C12.4362 13.0408 12.6391 13.0797 12.834 13.0395C13.6871 12.8633 14.4626 12.4215 15.0492 11.7775C15.6358 11.1335 16.0035 10.3203 16.0995 9.4545ZM6.75 1.5C6.55109 1.5 6.36032 1.57902 6.21967 1.71967C6.07902 1.86032 6 2.05109 6 2.25V9.75C5.9995 11.2118 6.53264 12.6234 7.49932 13.7199C8.46599 14.8164 9.7997 15.5223 11.25 15.705V21H9C8.80109 21 8.61032 21.079 8.46967 21.2197C8.32902 21.3603 8.25 21.5511 8.25 21.75C8.25 21.9489 8.32902 22.1397 8.46967 22.2803C8.61032 22.421 8.80109 22.5 9 22.5H15C15.1989 22.5 15.3897 22.421 15.5303 22.2803C15.671 22.1397 15.75 21.9489 15.75 21.75C15.75 21.5511 15.671 21.3603 15.5303 21.2197C15.3897 21.079 15.1989 21 15 21H12.75V15.705C14.2003 15.5223 15.534 14.8164 16.5007 13.7199C17.4674 12.6234 18.0005 11.2118 18 9.75V2.25C18 2.05109 17.921 1.86032 17.7803 1.71967C17.6397 1.57902 17.4489 1.5 17.25 1.5H6.75ZM7.5 6V3H16.5V6H7.5ZM7.5 7.5H16.5V9.75C16.5 10.9435 16.0259 12.0881 15.182 12.932C14.3381 13.7759 13.1935 14.25 12 14.25C10.8065 14.25 9.66193 13.7759 8.81802 12.932C7.97411 12.0881 7.5 10.9435 7.5 9.75V7.5Z" fill="#AE7D54"/>
</svg>
